<svg xmlns="http://www.w3.org/2000/svg" width="1600" height="1120" viewBox="0 0 1600 1120"><defs><marker id="a" viewBox="0 0 10 10" refX="9" refY="5" markerWidth="7" markerHeight="7" orient="auto"><path d="M0 0 L10 5 L0 10 Z" fill="#175fa0"/></marker></defs><rect width="1600" height="1120" fill="white"/><g font-family="Arial,PingFang SC,sans-serif">
<text x="60" y="62" font-size="35" fill="#17212b">乙类互补输出：过零附近两管都截止</text>
<text x="60" y="106" font-size="23" fill="#17212b">第 2 页｜固定导通压降 Uγ = 0.7 V 的近似；RL 为对地电阻，不讨论削顶区。</text>
<path d="M420 265 L420 335" stroke="#17212b" stroke-width="3" fill="none"/>
<path d="M420 277 L500 230" stroke="#17212b" stroke-width="3" fill="none"/>
<path d="M420 323 L500 370" stroke="#17212b" stroke-width="3" fill="none"/>
<path d="M460 347 L492 365" stroke="#175fa0" stroke-width="3" fill="none" marker-end="url(#a)"/>
<path d="M420 545 L420 615" stroke="#17212b" stroke-width="3" fill="none"/>
<path d="M420 603 L500 650" stroke="#17212b" stroke-width="3" fill="none"/>
<path d="M420 557 L500 510" stroke="#17212b" stroke-width="3" fill="none"/>
<path d="M493 514 L458 535" stroke="#175fa0" stroke-width="3" fill="none" marker-end="url(#a)"/>
<path d="M500 170 L500 230" stroke="#17212b" stroke-width="3" fill="none"/>
<text x="535" y="183" font-size="26" fill="#17212b">+VCC</text>
<path d="M500 650 L500 710" stroke="#17212b" stroke-width="3" fill="none"/>
<text x="535" y="720" font-size="26" fill="#17212b">−VCC</text>
<path d="M500 370 L500 510" stroke="#17212b" stroke-width="3" fill="none"/>
<circle cx="500" cy="440" r="5" fill="#17212b"/>
<path d="M500 440 L650 440" stroke="#17212b" stroke-width="3" fill="none"/>
<path d="M650 440 L650 533.0" stroke="#17212b" stroke-width="3" fill="none"/>
<path d="M650 597.0 L650 690" stroke="#17212b" stroke-width="3" fill="none"/>
<rect x="636" y="533.0" width="28" height="64" stroke="#17212b" stroke-width="3" fill="white"/>
<text x="675" y="574.0" font-size="26" fill="#17212b">RL</text>
<path d="M630 690 L670 690" stroke="#17212b" stroke-width="3" fill="none"/>
<path d="M637 698 L663 698" stroke="#17212b" stroke-width="3" fill="none"/>
<path d="M644 706 L656 706" stroke="#17212b" stroke-width="3" fill="none"/>
<text x="675" y="455" font-size="26" fill="#17212b">+ uo</text>
<text x="690" y="695" font-size="26" fill="#17212b">−</text>
<text x="520" y="290" font-size="22" fill="#17212b">T1 NPN</text>
<text x="520" y="605" font-size="22" fill="#17212b">T2 PNP</text>
<path d="M270 300 L420 300" stroke="#17212b" stroke-width="3" fill="none"/>
<path d="M270 580 L420 580" stroke="#17212b" stroke-width="3" fill="none"/>
<path d="M270 300 L270 580" stroke="#17212b" stroke-width="3" fill="none"/>
<path d="M140 440 L270 440" stroke="#17212b" stroke-width="3" fill="none"/>
<circle cx="270" cy="440" r="5" fill="#17212b"/>
<text x="120" y="415" font-size="26" fill="#17212b">ui</text>
<path d="M860 600 L1480 600" stroke="#17212b" stroke-width="3" fill="none"/>
<path d="M1170 790 L1170 220" stroke="#17212b" stroke-width="3" fill="none"/>
<text x="1490" y="610" font-size="26" fill="#17212b">ui</text>
<text x="1185" y="215" font-size="26" fill="#17212b">uo</text>
<path d="M890 790 L1125 600 L1215 600 L1450 410" fill="none" stroke="#175fa0" stroke-width="4"/>
<text x="1070" y="635" font-size="22" fill="#17212b">−0.7</text>
<text x="1210" y="635" font-size="22" fill="#17212b">+0.7</text>
<text x="930" y="730" font-size="25" fill="#17212b">T2 导通</text>
<text x="1290" y="395" font-size="25" fill="#17212b">T1 导通</text>
<text x="1010" y="835" font-size="27" fill="#17212b">中间平段：交越死区</text>
<polyline points="820,970.0 821,968.4293046031497 822,966.8592147392745 823,965.2903357079049 824,963.7232723417724 825,962.1586287736352 826,960.597008203373 827,959.0390126654426 828,957.4852427967816 829,955.9362976052516 830,954.3927742387098 831,952.8552677547959 832,951.3243708915276 833,949.8006738387874 834,948.2847640107941 835,946.777225819643 836,945.2786404500042 837,943.7895856350646 838,942.3106354338006 839,940.842360009668 840,939.3853254107928 841,937.9400933517487 842,936.5072209970058 843,935.0872607461326 844,933.6807600208363 845,932.2882610539202 846,930.9103006802436 847,929.5474101297613 848,928.2001148227241 849,926.86893416712 850,925.5543813584318 851,924.256963181791 852,922.9771798166022 853,921.7155246437143 854,920.4724840552133 855,919.2485372669083 856,918.0441561335853 857,916.8598049670975 858,915.6959403573646 859,914.5530109963491 860,913.4314575050762 861,912.3317122637665 862,911.2541992451452 863,910.1993338509923 864,909.1675227519975 865,908.159163730981 866,907.1746455295404 867,906.2143476981835 868,905.2786404500042 869,904.3678845179589 870,903.4824310157964 871,902.6226213026971 872,901.7887868516726 873,900.9812491217766 874,900.2003194341762 875,899.4462988521316 876,898.7194780649306 877,898.0201372758223 878,897.3485460939935 879,896.7049634306292 880,896.089637399097 881,895.5028052192957 882,894.9446931262013 883,894.4155162826497 884,893.9154786963877 885,893.4447731414233 886,893.0035810837082 887,892.5920726111792 888,892.2104063681859 889,891.8587294943302 890,891.5371775677415 891,891.2458745528087 892,890.984932752389 893,890.7544527645139 894,890.554523443606 895,890.3852218662242 896,890.2466133013497 897,890.1387511852228 898,890.0616771007421 899,890.0154207614348 900,890.0 901,890.0154207614348 902,890.0616771007421 903,890.1387511852228 904,890.2466133013497 905,890.3852218662242 906,890.554523443606 907,890.7544527645139 908,890.984932752389 909,891.2458745528087 910,891.5371775677415 911,891.8587294943302 912,892.2104063681859 913,892.5920726111792 914,893.0035810837082 915,893.4447731414233 916,893.9154786963877 917,894.4155162826497 918,894.9446931262013 919,895.5028052192957 920,896.089637399097 921,896.7049634306292 922,897.3485460939935 923,898.0201372758223 924,898.7194780649306 925,899.4462988521316 926,900.2003194341762 927,900.9812491217766 928,901.7887868516726 929,902.6226213026971 930,903.4824310157964 931,904.3678845179589 932,905.2786404500042 933,906.2143476981835 934,907.1746455295404 935,908.159163730981 936,909.1675227519975 937,910.1993338509923 938,911.2541992451452 939,912.3317122637665 940,913.4314575050762 941,914.5530109963491 942,915.6959403573646 943,916.8598049670975 944,918.0441561335853 945,919.2485372669083 946,920.4724840552133 947,921.7155246437143 948,922.9771798166022 949,924.256963181791 950,925.5543813584318 951,926.86893416712 952,928.2001148227241 953,929.5474101297613 954,930.9103006802436 955,932.2882610539202 956,933.6807600208363 957,935.0872607461326 958,936.5072209970058 959,937.9400933517487 960,939.3853254107928 961,940.842360009668 962,942.3106354338005 963,943.7895856350646 964,945.2786404500042 965,946.777225819643 966,948.284764010794 967,949.8006738387874 968,951.3243708915276 969,952.8552677547959 970,954.3927742387098 971,955.9362976052516 972,957.4852427967816 973,959.0390126654426 974,960.597008203373 975,962.1586287736351 976,963.7232723417724 977,965.2903357079049 978,966.8592147392745 979,968.4293046031497 980,970.0 981,971.5706953968503 982,973.1407852607255 983,974.7096642920951 984,976.2767276582275 985,977.8413712263648 986,979.402991796627 987,980.9609873345574 988,982.5147572032184 989,984.0637023947484 990,985.6072257612902 991,987.1447322452041 992,988.6756291084724 993,990.1993261612126 994,991.7152359892059 995,993.222774180357 996,994.7213595499958 997,996.2104143649354 998,997.6893645661994 999,999.157639990332 1000,1000.6146745892072 1001,1002.0599066482513 1002,1003.4927790029942 1003,1004.9127392538674 1004,1006.3192399791637 1005,1007.7117389460798 1006,1009.0896993197564 1007,1010.4525898702387 1008,1011.7998851772759 1009,1013.13106583288 1010,1014.4456186415682 1011,1015.743036818209 1012,1017.0228201833978 1013,1018.2844753562857 1014,1019.5275159447867 1015,1020.7514627330917 1016,1021.9558438664147 1017,1023.1401950329025 1018,1024.3040596426354 1019,1025.4469890036507 1020,1026.5685424949238 1021,1027.6682877362334 1022,1028.7458007548548 1023,1029.8006661490078 1024,1030.8324772480025 1025,1031.8408362690188 1026,1032.8253544704596 1027,1033.7856523018165 1028,1034.7213595499957 1029,1035.6321154820412 1030,1036.5175689842035 1031,1037.377378697303 1032,1038.2112131483273 1033,1039.0187508782233 1034,1039.7996805658238 1035,1040.5537011478684 1036,1041.2805219350694 1037,1041.9798627241778 1038,1042.6514539060065 1039,1043.295036569371 1040,1043.910362600903 1041,1044.4971947807044 1042,1045.0553068737988 1043,1045.5844837173502 1044,1046.0845213036123 1045,1046.5552268585766 1046,1046.9964189162918 1047,1047.4079273888208 1048,1047.7895936318141 1049,1048.1412705056698 1050,1048.4628224322585 1051,1048.7541254471914 1052,1049.0150672476111 1053,1049.2455472354861 1054,1049.4454765563942 1055,1049.6147781337759 1056,1049.7533866986503 1057,1049.8612488147774 1058,1049.9383228992579 1059,1049.9845792385652 1060,1050.0 1061,1049.9845792385652 1062,1049.9383228992579 1063,1049.8612488147774 1064,1049.7533866986503 1065,1049.6147781337759 1066,1049.4454765563942 1067,1049.2455472354861 1068,1049.0150672476111 1069,1048.7541254471914 1070,1048.4628224322585 1071,1048.1412705056698 1072,1047.7895936318141 1073,1047.4079273888208 1074,1046.9964189162918 1075,1046.5552268585768 1076,1046.0845213036123 1077,1045.5844837173502 1078,1045.0553068737988 1079,1044.4971947807044 1080,1043.910362600903 1081,1043.295036569371 1082,1042.6514539060065 1083,1041.9798627241778 1084,1041.2805219350694 1085,1040.5537011478684 1086,1039.7996805658238 1087,1039.0187508782233 1088,1038.2112131483273 1089,1037.377378697303 1090,1036.5175689842035 1091,1035.6321154820412 1092,1034.721359549996 1093,1033.7856523018165 1094,1032.8253544704596 1095,1031.8408362690188 1096,1030.8324772480025 1097,1029.8006661490078 1098,1028.7458007548548 1099,1027.6682877362334 1100,1026.5685424949238 1101,1025.446989003651 1102,1024.3040596426354 1103,1023.1401950329025 1104,1021.9558438664147 1105,1020.7514627330917 1106,1019.5275159447867 1107,1018.2844753562857 1108,1017.0228201833979 1109,1015.743036818209 1110,1014.4456186415682 1111,1013.13106583288 1112,1011.799885177276 1113,1010.4525898702387 1114,1009.0896993197564 1115,1007.7117389460799 1116,1006.3192399791637 1117,1004.9127392538674 1118,1003.4927790029942 1119,1002.0599066482513 1120,1000.6146745892072 1121,999.157639990332 1122,997.6893645661995 1123,996.2104143649356 1124,994.7213595499958 1125,993.222774180357 1126,991.7152359892059 1127,990.1993261612128 1128,988.6756291084724 1129,987.1447322452041 1130,985.6072257612904 1131,984.0637023947484 1132,982.5147572032184 1133,980.9609873345574 1134,979.4029917966271 1135,977.8413712263648 1136,976.2767276582276 1137,974.7096642920951 1138,973.1407852607256 1139,971.5706953968503 1140,970.0 1141,968.4293046031497 1142,966.8592147392745 1143,965.2903357079049 1144,963.7232723417725 1145,962.1586287736352 1146,960.597008203373 1147,959.0390126654426 1148,957.4852427967817 1149,955.9362976052516 1150,954.3927742387098 1151,952.8552677547959 1152,951.3243708915276 1153,949.8006738387874 1154,948.2847640107941 1155,946.777225819643 1156,945.2786404500042 1157,943.7895856350644 1158,942.3106354338006 1159,940.842360009668 1160,939.3853254107928 1161,937.9400933517487 1162,936.5072209970057 1163,935.0872607461328 1164,933.6807600208363 1165,932.2882610539202 1166,930.9103006802436 1167,929.5474101297613 1168,928.2001148227241 1169,926.8689341671201 1170,925.5543813584319 1171,924.2569631817911 1172,922.9771798166021 1173,921.7155246437144 1174,920.4724840552134 1175,919.2485372669083 1176,918.0441561335853 1177,916.8598049670975 1178,915.6959403573646 1179,914.5530109963491 1180,913.4314575050762 1181,912.3317122637665 1182,911.2541992451452 1183,910.1993338509923 1184,909.1675227519976 1185,908.159163730981 1186,907.1746455295404 1187,906.2143476981834 1188,905.2786404500042 1189,904.3678845179589 1190,903.4824310157964 1191,902.6226213026971 1192,901.7887868516726 1193,900.9812491217767 1194,900.2003194341762 1195,899.4462988521316 1196,898.7194780649306 1197,898.0201372758222 1198,897.3485460939935 1199,896.7049634306292 1200,896.0896373990971 1201,895.5028052192957 1202,894.9446931262013 1203,894.4155162826498 1204,893.9154786963877 1205,893.4447731414233 1206,893.0035810837082 1207,892.5920726111792 1208,892.2104063681859 1209,891.8587294943302 1210,891.5371775677415 1211,891.2458745528087 1212,890.984932752389 1213,890.7544527645139 1214,890.554523443606 1215,890.3852218662242 1216,890.2466133013497 1217,890.1387511852228 1218,890.0616771007421 1219,890.0154207614348 1220,890.0 1221,890.0154207614348 1222,890.0616771007421 1223,890.1387511852228 1224,890.2466133013497 1225,890.3852218662242 1226,890.554523443606 1227,890.7544527645139 1228,890.984932752389 1229,891.2458745528087 1230,891.5371775677415 1231,891.8587294943302 1232,892.2104063681859 1233,892.5920726111792 1234,893.0035810837082 1235,893.4447731414233 1236,893.9154786963877 1237,894.4155162826498 1238,894.9446931262013 1239,895.5028052192956 1240,896.089637399097 1241,896.704963430629 1242,897.3485460939935 1243,898.0201372758222 1244,898.7194780649305 1245,899.4462988521316 1246,900.2003194341762 1247,900.9812491217766 1248,901.7887868516726 1249,902.6226213026971 1250,903.4824310157964 1251,904.3678845179589 1252,905.2786404500042 1253,906.2143476981834 1254,907.1746455295404 1255,908.1591637309809 1256,909.1675227519976 1257,910.1993338509923 1258,911.2541992451451 1259,912.3317122637665 1260,913.4314575050761 1261,914.5530109963491 1262,915.6959403573647 1263,916.8598049670974 1264,918.0441561335853 1265,919.2485372669083 1266,920.4724840552133 1267,921.7155246437143 1268,922.9771798166021 1269,924.256963181791 1270,925.5543813584318 1271,926.86893416712 1272,928.2001148227241 1273,929.5474101297611 1274,930.9103006802435 1275,932.2882610539201 1276,933.6807600208363 1277,935.0872607461326 1278,936.5072209970057 1279,937.9400933517487 1280,939.3853254107928 1281,940.842360009668 1282,942.3106354338005 1283,943.7895856350644 1284,945.2786404500042 1285,946.7772258196429 1286,948.2847640107941 1287,949.8006738387875 1288,951.3243708915275 1289,952.8552677547959 1290,954.3927742387098 1291,955.9362976052516 1292,957.4852427967816 1293,959.0390126654426 1294,960.5970082033729 1295,962.1586287736352 1296,963.7232723417724 1297,965.2903357079049 1298,966.8592147392744 1299,968.4293046031496 1300,970.0 1301,971.5706953968503 1302,973.1407852607255 1303,974.709664292095 1304,976.2767276582276 1305,977.8413712263648 1306,979.402991796627 1307,980.9609873345574 1308,982.5147572032183 1309,984.0637023947484 1310,985.6072257612902 1311,987.1447322452041 1312,988.6756291084725 1313,990.1993261612125 1314,991.7152359892059 1315,993.222774180357 1316,994.7213595499958 1317,996.2104143649356 1318,997.6893645661994 1319,999.1576399903319 1320,1000.6146745892072 1321,1002.0599066482512 1322,1003.4927790029942 1323,1004.9127392538674 1324,1006.3192399791636 1325,1007.7117389460798 1326,1009.0896993197564 1327,1010.4525898702387 1328,1011.7998851772759 1329,1013.13106583288 1330,1014.4456186415681 1331,1015.743036818209 1332,1017.0228201833978 1333,1018.2844753562856 1334,1019.5275159447867 1335,1020.7514627330916 1336,1021.9558438664147 1337,1023.1401950329026 1338,1024.3040596426351 1339,1025.4469890036507 1340,1026.5685424949238 1341,1027.6682877362334 1342,1028.7458007548548 1343,1029.8006661490076 1344,1030.8324772480025 1345,1031.840836269019 1346,1032.8253544704596 1347,1033.7856523018165 1348,1034.7213595499957 1349,1035.632115482041 1350,1036.5175689842035 1351,1037.377378697303 1352,1038.2112131483275 1353,1039.0187508782233 1354,1039.7996805658238 1355,1040.5537011478684 1356,1041.2805219350694 1357,1041.9798627241778 1358,1042.6514539060065 1359,1043.295036569371 1360,1043.910362600903 1361,1044.4971947807044 1362,1045.0553068737986 1363,1045.5844837173502 1364,1046.0845213036123 1365,1046.5552268585766 1366,1046.9964189162918 1367,1047.4079273888208 1368,1047.7895936318141 1369,1048.1412705056698 1370,1048.4628224322585 1371,1048.7541254471914 1372,1049.0150672476111 1373,1049.2455472354861 1374,1049.4454765563942 1375,1049.6147781337759 1376,1049.7533866986503 1377,1049.8612488147774 1378,1049.9383228992579 1379,1049.9845792385652 1380,1050.0 1381,1049.9845792385652 1382,1049.9383228992579 1383,1049.8612488147774 1384,1049.7533866986503 1385,1049.6147781337759 1386,1049.4454765563942 1387,1049.2455472354861 1388,1049.0150672476111 1389,1048.7541254471914 1390,1048.4628224322585 1391,1048.1412705056698 1392,1047.7895936318141 1393,1047.4079273888208 1394,1046.9964189162918 1395,1046.5552268585766 1396,1046.0845213036123 1397,1045.5844837173502 1398,1045.0553068737988 1399,1044.4971947807044 1400,1043.910362600903 1401,1043.295036569371 1402,1042.6514539060065 1403,1041.9798627241778 1404,1041.2805219350694 1405,1040.5537011478684 1406,1039.7996805658238 1407,1039.0187508782233 1408,1038.2112131483275 1409,1037.377378697303 1410,1036.5175689842035 1411,1035.6321154820412 1412,1034.721359549996 1413,1033.7856523018165 1414,1032.8253544704596 1415,1031.840836269019 1416,1030.8324772480025 1417,1029.8006661490076 1418,1028.7458007548548 1419,1027.6682877362337 1420,1026.5685424949238 1421,1025.446989003651 1422,1024.3040596426354 1423,1023.1401950329026 1424,1021.9558438664147 1425,1020.7514627330917 1426,1019.5275159447867 1427,1018.2844753562857 1428,1017.0228201833979 1429,1015.743036818209 1430,1014.4456186415682 1431,1013.13106583288 1432,1011.7998851772759 1433,1010.4525898702389 1434,1009.0896993197565 1435,1007.7117389460799 1436,1006.3192399791637 1437,1004.9127392538674 1438,1003.4927790029943 1439,1002.0599066482513 1440,1000.6146745892072 1441,999.157639990332 1442,997.6893645661995 1443,996.2104143649356 1444,994.7213595499958 1445,993.2227741803571 1446,991.715235989206 1447,990.1993261612125 1448,988.6756291084725 1449,987.1447322452041 1450,985.6072257612902 1451,984.0637023947484 1452,982.5147572032184 1453,980.9609873345574 1454,979.4029917966271 1455,977.8413712263649 1456,976.2767276582276 1457,974.7096642920951 1458,973.1407852607256 1459,971.5706953968504 1460,970.0" fill="none" stroke="#888" stroke-width="3"/>
<polyline points="820,970.0 821,970.0 822,970.0 823,970.0 824,970.0 825,970.0 826,970.0 827,970.0 828,970.0 829,970.0 830,970.0 831,970.0 832,970.0 833,970.0 834,970.0 835,970.0 836,970.0 837,970.0 838,970.0 839,968.842360009668 840,967.3853254107928 841,965.9400933517487 842,964.5072209970058 843,963.0872607461326 844,961.6807600208363 845,960.2882610539202 846,958.9103006802436 847,957.5474101297613 848,956.2001148227241 849,954.86893416712 850,953.5543813584318 851,952.256963181791 852,950.9771798166022 853,949.7155246437143 854,948.4724840552133 855,947.2485372669083 856,946.0441561335853 857,944.8598049670975 858,943.6959403573646 859,942.5530109963491 860,941.4314575050762 861,940.3317122637665 862,939.2541992451452 863,938.1993338509923 864,937.1675227519975 865,936.159163730981 866,935.1746455295404 867,934.2143476981835 868,933.2786404500042 869,932.3678845179589 870,931.4824310157964 871,930.6226213026971 872,929.7887868516726 873,928.9812491217766 874,928.2003194341762 875,927.4462988521316 876,926.7194780649306 877,926.0201372758223 878,925.3485460939935 879,924.7049634306292 880,924.089637399097 881,923.5028052192957 882,922.9446931262013 883,922.4155162826497 884,921.9154786963877 885,921.4447731414233 886,921.0035810837082 887,920.5920726111792 888,920.2104063681859 889,919.8587294943302 890,919.5371775677415 891,919.2458745528087 892,918.984932752389 893,918.7544527645139 894,918.554523443606 895,918.3852218662242 896,918.2466133013497 897,918.1387511852228 898,918.0616771007421 899,918.0154207614348 900,918.0 901,918.0154207614348 902,918.0616771007421 903,918.1387511852228 904,918.2466133013497 905,918.3852218662242 906,918.554523443606 907,918.7544527645139 908,918.984932752389 909,919.2458745528087 910,919.5371775677415 911,919.8587294943302 912,920.2104063681859 913,920.5920726111792 914,921.0035810837082 915,921.4447731414233 916,921.9154786963877 917,922.4155162826497 918,922.9446931262013 919,923.5028052192957 920,924.089637399097 921,924.7049634306292 922,925.3485460939935 923,926.0201372758223 924,926.7194780649306 925,927.4462988521316 926,928.2003194341762 927,928.9812491217766 928,929.7887868516726 929,930.6226213026971 930,931.4824310157964 931,932.3678845179589 932,933.2786404500042 933,934.2143476981835 934,935.1746455295404 935,936.159163730981 936,937.1675227519975 937,938.1993338509923 938,939.2541992451452 939,940.3317122637665 940,941.4314575050762 941,942.5530109963491 942,943.6959403573646 943,944.8598049670975 944,946.0441561335853 945,947.2485372669083 946,948.4724840552133 947,949.7155246437143 948,950.9771798166022 949,952.256963181791 950,953.5543813584318 951,954.86893416712 952,956.2001148227241 953,957.5474101297613 954,958.9103006802436 955,960.2882610539202 956,961.6807600208363 957,963.0872607461326 958,964.5072209970058 959,965.9400933517487 960,967.3853254107928 961,968.842360009668 962,970.0 963,970.0 964,970.0 965,970.0 966,970.0 967,970.0 968,970.0 969,970.0 970,970.0 971,970.0 972,970.0 973,970.0 974,970.0 975,970.0 976,970.0 977,970.0 978,970.0 979,970.0 980,970.0 981,970.0 982,970.0 983,970.0 984,970.0 985,970.0 986,970.0 987,970.0 988,970.0 989,970.0 990,970.0 991,970.0 992,970.0 993,970.0 994,970.0 995,970.0 996,970.0 997,970.0 998,970.0 999,971.157639990332 1000,972.6146745892072 1001,974.0599066482513 1002,975.4927790029942 1003,976.9127392538674 1004,978.3192399791637 1005,979.7117389460798 1006,981.0896993197564 1007,982.4525898702387 1008,983.7998851772759 1009,985.13106583288 1010,986.4456186415682 1011,987.743036818209 1012,989.0228201833978 1013,990.2844753562857 1014,991.5275159447867 1015,992.7514627330917 1016,993.9558438664147 1017,995.1401950329025 1018,996.3040596426354 1019,997.4469890036509 1020,998.5685424949238 1021,999.6682877362335 1022,1000.7458007548548 1023,1001.8006661490077 1024,1002.8324772480024 1025,1003.840836269019 1026,1004.8253544704596 1027,1005.7856523018165 1028,1006.7213595499958 1029,1007.6321154820411 1030,1008.5175689842036 1031,1009.3773786973029 1032,1010.2112131483274 1033,1011.0187508782234 1034,1011.7996805658238 1035,1012.5537011478684 1036,1013.2805219350694 1037,1013.9798627241777 1038,1014.6514539060065 1039,1015.2950365693708 1040,1015.9103626009029 1041,1016.4971947807043 1042,1017.0553068737987 1043,1017.5844837173503 1044,1018.0845213036123 1045,1018.5552268585767 1046,1018.9964189162918 1047,1019.4079273888208 1048,1019.7895936318141 1049,1020.1412705056698 1050,1020.4628224322585 1051,1020.7541254471913 1052,1021.015067247611 1053,1021.2455472354861 1054,1021.445476556394 1055,1021.6147781337758 1056,1021.7533866986503 1057,1021.8612488147772 1058,1021.9383228992579 1059,1021.9845792385652 1060,1022.0 1061,1021.9845792385652 1062,1021.9383228992579 1063,1021.8612488147772 1064,1021.7533866986503 1065,1021.6147781337758 1066,1021.445476556394 1067,1021.2455472354861 1068,1021.015067247611 1069,1020.7541254471913 1070,1020.4628224322585 1071,1020.1412705056698 1072,1019.7895936318141 1073,1019.4079273888208 1074,1018.9964189162918 1075,1018.5552268585767 1076,1018.0845213036123 1077,1017.5844837173503 1078,1017.0553068737987 1079,1016.4971947807043 1080,1015.9103626009029 1081,1015.2950365693708 1082,1014.6514539060065 1083,1013.9798627241778 1084,1013.2805219350694 1085,1012.5537011478684 1086,1011.7996805658238 1087,1011.0187508782234 1088,1010.2112131483274 1089,1009.3773786973029 1090,1008.5175689842036 1091,1007.6321154820411 1092,1006.7213595499958 1093,1005.7856523018165 1094,1004.8253544704596 1095,1003.840836269019 1096,1002.8324772480024 1097,1001.8006661490077 1098,1000.7458007548548 1099,999.6682877362335 1100,998.5685424949238 1101,997.4469890036509 1102,996.3040596426354 1103,995.1401950329025 1104,993.9558438664147 1105,992.7514627330917 1106,991.5275159447867 1107,990.2844753562857 1108,989.0228201833979 1109,987.743036818209 1110,986.4456186415682 1111,985.13106583288 1112,983.799885177276 1113,982.4525898702387 1114,981.0896993197564 1115,979.7117389460799 1116,978.3192399791637 1117,976.9127392538674 1118,975.4927790029942 1119,974.0599066482513 1120,972.6146745892072 1121,971.157639990332 1122,970.0 1123,970.0 1124,970.0 1125,970.0 1126,970.0 1127,970.0 1128,970.0 1129,970.0 1130,970.0 1131,970.0 1132,970.0 1133,970.0 1134,970.0 1135,970.0 1136,970.0 1137,970.0 1138,970.0 1139,970.0 1140,970.0 1141,970.0 1142,970.0 1143,970.0 1144,970.0 1145,970.0 1146,970.0 1147,970.0 1148,970.0 1149,970.0 1150,970.0 1151,970.0 1152,970.0 1153,970.0 1154,970.0 1155,970.0 1156,970.0 1157,970.0 1158,970.0 1159,968.842360009668 1160,967.3853254107928 1161,965.9400933517487 1162,964.5072209970057 1163,963.0872607461328 1164,961.6807600208363 1165,960.2882610539202 1166,958.9103006802436 1167,957.5474101297613 1168,956.2001148227241 1169,954.8689341671201 1170,953.5543813584319 1171,952.2569631817911 1172,950.9771798166021 1173,949.7155246437144 1174,948.4724840552134 1175,947.2485372669083 1176,946.0441561335853 1177,944.8598049670975 1178,943.6959403573646 1179,942.5530109963491 1180,941.4314575050762 1181,940.3317122637665 1182,939.2541992451452 1183,938.1993338509923 1184,937.1675227519976 1185,936.159163730981 1186,935.1746455295404 1187,934.2143476981834 1188,933.2786404500042 1189,932.3678845179589 1190,931.4824310157964 1191,930.6226213026971 1192,929.7887868516726 1193,928.9812491217767 1194,928.2003194341762 1195,927.4462988521316 1196,926.7194780649306 1197,926.0201372758222 1198,925.3485460939935 1199,924.7049634306292 1200,924.0896373990971 1201,923.5028052192957 1202,922.9446931262013 1203,922.4155162826498 1204,921.9154786963877 1205,921.4447731414233 1206,921.0035810837082 1207,920.5920726111792 1208,920.2104063681859 1209,919.8587294943302 1210,919.5371775677415 1211,919.2458745528087 1212,918.984932752389 1213,918.7544527645139 1214,918.554523443606 1215,918.3852218662242 1216,918.2466133013497 1217,918.1387511852228 1218,918.0616771007421 1219,918.0154207614348 1220,918.0 1221,918.0154207614348 1222,918.0616771007421 1223,918.1387511852228 1224,918.2466133013497 1225,918.3852218662242 1226,918.554523443606 1227,918.7544527645139 1228,918.984932752389 1229,919.2458745528087 1230,919.5371775677415 1231,919.8587294943302 1232,920.2104063681859 1233,920.5920726111792 1234,921.0035810837082 1235,921.4447731414233 1236,921.9154786963877 1237,922.4155162826498 1238,922.9446931262013 1239,923.5028052192957 1240,924.089637399097 1241,924.704963430629 1242,925.3485460939935 1243,926.0201372758222 1244,926.7194780649305 1245,927.4462988521316 1246,928.2003194341762 1247,928.9812491217766 1248,929.7887868516726 1249,930.6226213026971 1250,931.4824310157964 1251,932.3678845179589 1252,933.2786404500042 1253,934.2143476981834 1254,935.1746455295404 1255,936.1591637309809 1256,937.1675227519976 1257,938.1993338509923 1258,939.2541992451451 1259,940.3317122637665 1260,941.4314575050761 1261,942.5530109963491 1262,943.6959403573647 1263,944.8598049670974 1264,946.0441561335853 1265,947.2485372669083 1266,948.4724840552133 1267,949.7155246437143 1268,950.9771798166021 1269,952.256963181791 1270,953.5543813584318 1271,954.86893416712 1272,956.2001148227241 1273,957.5474101297611 1274,958.9103006802435 1275,960.2882610539201 1276,961.6807600208363 1277,963.0872607461326 1278,964.5072209970057 1279,965.9400933517487 1280,967.3853254107928 1281,968.842360009668 1282,970.0 1283,970.0 1284,970.0 1285,970.0 1286,970.0 1287,970.0 1288,970.0 1289,970.0 1290,970.0 1291,970.0 1292,970.0 1293,970.0 1294,970.0 1295,970.0 1296,970.0 1297,970.0 1298,970.0 1299,970.0 1300,970.0 1301,970.0 1302,970.0 1303,970.0 1304,970.0 1305,970.0 1306,970.0 1307,970.0 1308,970.0 1309,970.0 1310,970.0 1311,970.0 1312,970.0 1313,970.0 1314,970.0 1315,970.0 1316,970.0 1317,970.0 1318,970.0 1319,971.1576399903319 1320,972.6146745892072 1321,974.0599066482512 1322,975.4927790029943 1323,976.9127392538674 1324,978.3192399791636 1325,979.7117389460798 1326,981.0896993197564 1327,982.4525898702387 1328,983.7998851772759 1329,985.13106583288 1330,986.4456186415681 1331,987.743036818209 1332,989.0228201833978 1333,990.2844753562856 1334,991.5275159447867 1335,992.7514627330916 1336,993.9558438664147 1337,995.1401950329026 1338,996.3040596426353 1339,997.4469890036509 1340,998.5685424949238 1341,999.6682877362335 1342,1000.7458007548548 1343,1001.8006661490076 1344,1002.8324772480024 1345,1003.840836269019 1346,1004.8253544704596 1347,1005.7856523018166 1348,1006.7213595499958 1349,1007.6321154820411 1350,1008.5175689842036 1351,1009.3773786973029 1352,1010.2112131483274 1353,1011.0187508782233 1354,1011.7996805658237 1355,1012.5537011478684 1356,1013.2805219350695 1357,1013.9798627241777 1358,1014.6514539060065 1359,1015.2950365693708 1360,1015.9103626009029 1361,1016.4971947807043 1362,1017.0553068737987 1363,1017.5844837173502 1364,1018.0845213036123 1365,1018.5552268585767 1366,1018.9964189162918 1367,1019.4079273888208 1368,1019.7895936318141 1369,1020.1412705056698 1370,1020.4628224322585 1371,1020.7541254471913 1372,1021.015067247611 1373,1021.2455472354861 1374,1021.445476556394 1375,1021.6147781337758 1376,1021.7533866986503 1377,1021.8612488147772 1378,1021.9383228992579 1379,1021.9845792385652 1380,1022.0 1381,1021.9845792385652 1382,1021.9383228992579 1383,1021.8612488147772 1384,1021.7533866986503 1385,1021.6147781337758 1386,1021.445476556394 1387,1021.2455472354862 1388,1021.015067247611 1389,1020.7541254471913 1390,1020.4628224322585 1391,1020.1412705056698 1392,1019.7895936318141 1393,1019.4079273888208 1394,1018.9964189162918 1395,1018.5552268585767 1396,1018.0845213036123 1397,1017.5844837173502 1398,1017.0553068737987 1399,1016.4971947807043 1400,1015.910362600903 1401,1015.295036569371 1402,1014.6514539060065 1403,1013.9798627241778 1404,1013.2805219350695 1405,1012.5537011478684 1406,1011.7996805658238 1407,1011.0187508782234 1408,1010.2112131483274 1409,1009.3773786973029 1410,1008.5175689842036 1411,1007.6321154820411 1412,1006.7213595499958 1413,1005.7856523018166 1414,1004.8253544704596 1415,1003.8408362690191 1416,1002.8324772480025 1417,1001.8006661490077 1418,1000.7458007548549 1419,999.6682877362335 1420,998.5685424949239 1421,997.4469890036509 1422,996.3040596426353 1423,995.1401950329026 1424,993.9558438664147 1425,992.7514627330917 1426,991.5275159447867 1427,990.2844753562857 1428,989.0228201833979 1429,987.743036818209 1430,986.4456186415682 1431,985.13106583288 1432,983.7998851772759 1433,982.4525898702389 1434,981.0896993197565 1435,979.7117389460799 1436,978.3192399791637 1437,976.9127392538674 1438,975.4927790029943 1439,974.0599066482513 1440,972.6146745892072 1441,971.157639990332 1442,970.0 1443,970.0 1444,970.0 1445,970.0 1446,970.0 1447,970.0 1448,970.0 1449,970.0 1450,970.0 1451,970.0 1452,970.0 1453,970.0 1454,970.0 1455,970.0 1456,970.0 1457,970.0 1458,970.0 1459,970.0 1460,970.0" fill="none" stroke="#175fa0" stroke-width="3"/>
<text x="70" y="850" font-size="29" fill="#17212b">ui &gt; +0.7：uo ≈ ui − 0.7</text>
<text x="70" y="925" font-size="29" fill="#17212b">−0.7 ≤ ui ≤ +0.7：uo ≈ 0</text>
<text x="70" y="1000" font-size="29" fill="#17212b">ui &lt; −0.7：uo ≈ ui + 0.7</text>
<text x="850" y="1080" font-size="24" fill="#17212b">灰：输入；蓝：输出（过零出现缺口）</text>
</g></svg>